<svg width="695" height="777" viewBox="0 0 695 777" fill="none" xmlns="http://www.w3.org/2000/svg">
<g clip-path="url(#clip0_2_21)">
<path d="M83.7779 332.741L120.46 282.616C141.495 300.733 183.015 299.242 214.557 297.166C295.916 291.844 430.323 282.71 428.377 323.324C427.167 348.556 389.502 364.579 397.081 382.961C405.528 403.513 441.512 409.911 440.491 433.501C439.508 456.299 397.95 465.453 402.901 488.307C407.324 508.652 438.809 520.674 431.495 536.979C422.216 557.683 391.751 559.853 389.446 586.237C388.671 595.05 403.903 608.978 413.145 612.79L606.951 655.102C607.726 661.387 609.408 670.182 606.176 671.767L588.487 680.448C464.738 678.165 343.994 664.954 223.175 638.174C175.947 624.265 131.422 608.808 95.7786 577.329C45.697 533.092 38.421 463.848 76.842 410.137C88.2002 394.247 101.373 380.111 117.758 362.22C117.323 352.123 94.8336 329.665 83.7401 332.703L83.7779 332.741Z" fill="#83CD27"/>
<path d="M369.262 50.2197C371.586 111.518 339.118 162.681 306.896 218.43L266.075 196.217C295.292 150.527 310.695 118.746 325.7 67.2805L302.663 50.333L168.085 224.092C167.272 226.3 163.398 237.416 165.628 239.039C168.973 241.474 179.519 245.833 184.81 245.72L352.877 241.983C412.219 240.662 475.208 263.385 485.697 318.7L465.929 376.79C480.424 389.547 499.493 413.081 497.395 433.105C495.241 453.544 483.92 471.888 470.068 490.251C491.14 514.993 495.997 543.717 468.764 572.988L519.148 584.293L598.824 602.165C628.571 607.619 653.442 627.133 661.814 652.989C667.578 686.393 642.575 724.78 601.697 726.761C461.884 733.537 322.223 716.514 186.36 681.505C129.04 666.728 82.4739 639.268 40.6322 603.656C-26.7228 515.314 -9.03363 395.983 83.759 332.741C94.8526 329.703 117.361 352.161 117.777 362.258C101.392 380.149 88.238 394.284 76.861 410.175C38.4399 463.867 45.7159 533.129 95.7975 577.367C131.44 608.846 175.966 624.284 223.194 638.212C344.013 664.992 464.757 678.202 588.506 680.486L606.195 671.805C609.408 670.219 607.726 661.425 606.97 655.14L413.164 612.828C403.941 609.016 388.69 595.088 389.465 586.274C391.77 559.891 422.235 557.701 431.514 537.017C438.828 520.711 407.324 508.69 402.92 488.345C397.95 465.49 439.508 456.356 440.51 433.539C441.53 409.949 405.566 403.551 397.1 382.999C389.54 364.617 427.186 348.575 428.396 323.362C430.342 282.729 295.916 291.882 214.576 297.204C183.034 299.261 141.513 300.771 120.479 282.654C95.6652 261.29 101.675 221.676 120.725 197.878L259.952 24.0247C274.334 6.07695 307.18 -2.86862 327.382 0.830391C347.585 4.5294 368.449 28.6862 369.262 50.2386V50.2197Z" fill="#F4F4F4"/>
<path d="M661.833 653.008C685.57 668.275 696.89 695.358 694.754 725.044C690.256 746.559 665.972 773.943 636.943 775.396C482.125 783.115 330.349 762.487 181.428 722.081C120.952 696.83 60.5515 663.18 40.6511 603.675C82.474 639.287 129.059 666.766 186.379 681.524C322.242 716.551 461.903 733.555 601.716 726.78C642.594 724.799 667.597 686.412 661.833 653.008Z" fill="#83CD27"/>
<path d="M352.877 242.002L184.81 245.739C179.538 245.852 168.973 241.493 165.628 239.058C163.398 237.435 167.272 226.319 168.085 224.111L302.663 50.3519L325.7 67.2994C310.695 118.765 295.292 150.546 266.075 196.236L306.896 218.449C339.118 162.7 371.567 111.537 369.262 50.2386C403.128 67.3937 410.007 112.895 393.528 150.036L352.877 242.021V242.002Z" fill="#83CD27"/>
<path d="M519.166 584.312L468.782 573.007C496.015 543.736 491.159 515.012 470.086 490.27C483.939 471.907 495.26 453.563 497.414 433.124C499.512 413.1 480.443 389.566 465.948 376.809L485.716 318.719C521.604 335.119 524.931 383.508 498.529 417.837C533.681 450.223 537.687 498.951 507.714 532.639L519.166 584.312Z" fill="#83CD27"/>
</g>
<defs>
<clipPath id="clip0_2_21">
<rect width="695" height="777" fill="white"/>
</clipPath>
</defs>
</svg>
