<svg width="696" height="777" viewBox="0 0 696 777" fill="none" xmlns="http://www.w3.org/2000/svg">
<g clip-path="url(#clip0_2_2)">
<path d="M83.8985 332.741L120.634 282.616C141.698 300.733 183.278 299.242 214.866 297.167C296.342 291.844 430.943 282.71 428.993 323.324C427.782 348.556 390.063 364.579 397.652 382.961C406.112 403.513 442.147 409.911 441.125 433.501C440.141 456.299 398.523 465.453 403.481 488.307C407.91 508.652 439.441 520.674 432.116 536.979C422.824 557.683 392.315 559.853 390.006 586.237C389.23 595.05 404.484 608.978 413.739 612.79L607.824 655.102C608.6 661.387 610.285 670.182 607.048 671.767L589.334 680.448C465.407 678.165 344.489 664.954 223.496 638.174C176.2 624.265 131.611 608.808 95.9165 577.329C45.7628 533.092 38.4764 463.848 76.9527 410.137C88.3272 394.247 101.519 380.111 117.927 362.22C117.492 352.123 94.9702 329.665 83.8607 332.703L83.8985 332.741Z" fill="#83CD27"/>
<path d="M369.792 50.2201C372.12 111.518 339.606 162.681 307.337 218.431L266.457 196.218C295.716 150.528 311.141 118.746 326.168 67.2809L303.097 50.3334L168.326 224.093C167.512 226.301 163.632 237.417 165.866 239.04C169.216 241.474 179.776 245.834 185.076 245.72L353.384 241.984C412.811 240.663 475.891 263.385 486.395 318.7L466.598 376.79C481.114 389.548 500.211 413.082 498.11 433.106C495.952 453.544 484.616 471.889 470.743 490.251C491.845 514.993 496.709 543.717 469.437 572.989L519.894 584.293L599.685 602.165C629.475 607.62 654.381 627.134 662.765 652.989C668.538 686.393 643.499 724.78 602.562 726.762C462.548 733.537 322.686 716.514 186.627 681.505C129.225 666.728 82.5918 639.269 40.6898 603.656C-26.7621 515.314 -9.04743 395.983 83.8787 332.742C94.9882 329.703 117.529 352.161 117.945 362.258C101.537 380.149 88.3642 394.285 76.9708 410.175C38.4944 463.868 45.7809 533.13 95.9345 577.367C131.629 608.846 176.218 624.284 223.514 638.212C344.507 664.992 465.425 678.203 589.352 680.486L607.066 671.805C610.284 670.22 608.599 661.425 607.842 655.141L413.757 612.828C404.521 609.016 389.248 595.088 390.024 586.275C392.333 559.891 422.842 557.702 432.134 537.018C439.459 520.712 407.909 508.69 403.499 488.345C398.522 465.491 440.14 456.356 441.143 433.54C442.165 409.949 406.149 403.551 397.67 382.999C390.1 364.617 427.8 348.576 429.011 323.362C430.961 282.729 296.341 291.883 214.884 297.205C183.297 299.262 141.716 300.772 120.652 282.654C95.8021 261.29 101.82 221.677 120.898 197.879L260.325 24.0251C274.728 6.07734 307.621 -2.86823 327.853 0.83078C348.084 4.52979 368.979 28.6866 369.792 50.239V50.2201Z" fill="#212121"/>
<path d="M662.785 653.008C686.556 668.276 697.893 695.358 695.754 725.044C691.25 746.559 666.93 773.943 637.86 775.396C482.819 783.115 330.825 762.487 181.689 722.081C121.126 696.83 60.6386 663.18 40.7096 603.675C82.5926 639.287 129.245 666.766 186.647 681.524C322.706 716.551 462.568 733.556 602.582 726.78C643.518 724.799 668.557 686.412 662.785 653.008Z" fill="#83CD27"/>
<path d="M353.384 242.002L185.076 245.739C179.796 245.852 169.216 241.493 165.867 239.058C163.633 237.435 167.513 226.319 168.327 224.111L303.098 50.3519L326.169 67.2994C311.142 118.765 295.717 150.546 266.458 196.236L307.338 218.449C339.606 162.7 372.102 111.537 369.793 50.2386C403.708 67.3937 410.597 112.895 394.094 150.036L353.384 242.021V242.002Z" fill="#83CD27"/>
<path d="M519.913 584.312L469.457 573.007C496.729 543.736 491.865 515.012 470.763 490.27C484.636 471.907 495.972 453.563 498.13 433.124C500.23 413.1 481.134 389.566 466.618 376.808L486.415 318.719C522.355 335.119 525.686 383.508 499.246 417.837C534.448 450.222 538.461 498.951 508.444 532.639L519.913 584.312Z" fill="#83CD27"/>
</g>
<defs>
<clipPath id="clip0_2_2">
<rect width="696" height="777" fill="white"/>
</clipPath>
</defs>
</svg>
